<?xml version="1.0" encoding="UTF-8" standalone="no"?>
<svg
   xmlns:dc="http://purl.org/dc/elements/1.1/"
   xmlns:cc="http://creativecommons.org/ns#"
   xmlns:rdf="http://www.w3.org/1999/02/22-rdf-syntax-ns#"
   xmlns:svg="http://www.w3.org/2000/svg"
   xmlns="http://www.w3.org/2000/svg"
   id="svg8"
   version="1.1"
   viewBox="0 0 507.9999 285.75001"
   height="1080"
   width="1920">
  <defs
     id="defs2" />
  <metadata
     id="metadata5">
    <rdf:RDF>
      <cc:Work
         rdf:about="">
        <dc:format>image/svg+xml</dc:format>
        <dc:type
           rdf:resource="http://purl.org/dc/dcmitype/StillImage" />
        <dc:title></dc:title>
      </cc:Work>
    </rdf:RDF>
  </metadata>
  <g
     style="display:inline"
     transform="translate(0,-11.249991)"
     id="layer1">
    <path
       id="path3715"
       d="m 0,296.99997 c 28.222468,-31.75028 56.444688,-63.50027 89.958584,-79.37513 33.513896,-15.87486 72.319446,-15.87486 142.874946,1.6e-4 70.5555,15.87503 172.86105,47.62503 275.16643,79.37497"
       style="fill:#2a7fff;fill-opacity:1;stroke:#000000;stroke-width:0.26458332px;stroke-linecap:butt;stroke-linejoin:miter;stroke-opacity:1;image-rendering:optimizeSpeed" />
    <path
       transform="matrix(0.26458331,0,0,0.26458331,0,11.249991)"
       id="path889"
       d="m 22.13433,1057.7061 c 36.739587,-41.6546 88.51482,-96.18415 128.51149,-135.34808 115.36047,-112.95864 213.91652,-166.70587 332.49704,-181.32621 36.8428,-4.54252 124.5068,-3.76112 172.85714,1.54077 164.42626,18.0303 398.5215,76.0547 824.2857,204.31295 117.5618,35.41461 415.5789,126.89897 422.8572,129.80737 1.5714,0.6279 -425.0967,1.2432 -948.15141,1.3672 l -951.0085446,0.2256 z"
       style="fill:#2a7fff;fill-opacity:1;stroke-width:2.85714293" />
    <path
       transform="matrix(0.26458331,0,0,0.26458331,0,11.249991)"
       id="path891"
       d="M 13.251091,1067.5714 C 73.005037,998.51974 176.99406,893.60831 218.85714,860.1416 317.817,781.02986 407.60574,744.52994 517.99657,738.53876 c 168.06326,-9.1212 396.00646,39.09273 912.28913,192.96496 105.6595,31.49061 472.5007,144.21318 474.0476,145.66488 0.6548,0.6144 -426.657,1.1171 -949.58167,1.1171 H 3.9794731 Z"
       style="fill:#8080ff;fill-opacity:1;stroke-width:2.85714293" />
    <path
       transform="matrix(0.26458331,0,0,0.26458331,0,11.249991)"
       id="path893"
       d="M 16.103339,1064.7143 C 103.93098,967.48937 188.42852,883.80359 233.26925,849.63468 c 34.71938,-26.45637 68.90804,-47.68324 103.38006,-64.18606 203.42738,-97.38691 437.27746,-57.49705 1390.77929,237.23748 74.6428,23.0726 142.7857,44.0571 151.4285,46.6321 l 15.7143,4.6818 -20,1.788 c -11,0.9833 -436.4137,1.9476 -945.36386,2.1428 l -925.3638829,0.3549 z"
       style="fill:#8080ff;fill-opacity:1;stroke-width:2.85714293" />
    <path
       transform="matrix(0.26458331,0,0,0.26458331,0,11.249991)"
       id="path895"
       d="m 22.13433,1057.7399 c 62.59103,-70.84775 152.00052,-160.18538 199.57996,-199.41955 42.5792,-35.11095 112.27502,-75.56932 159.29134,-92.46846 54.10988,-19.4488 105.48808,-27.4293 177.11114,-27.5104 190.96169,-0.21623 451.14433,62.83624 1160.60583,281.26041 94.6274,29.1332 172.9046,53.1216 173.9493,53.3076 21.0822,3.7518 -168.558,4.7555 -951.96613,5.0382 l -936.7228246,0.338 z"
       style="fill:#5555ff;fill-opacity:1;stroke-width:2.85714293" />
    <path
       transform="matrix(0.26458331,0,0,0.26458331,0,11.249991)"
       id="path897"
       d="m 34.72424,1043.9603 c 39.009537,-43.7926 125.28762,-130.61875 164.51262,-165.55761 56.27536,-50.1261 137.59828,-97.97038 201.14165,-118.33659 98.28012,-31.49962 236.90472,-27.84915 429.40129,11.30763 161.43166,32.83771 443.8274,111.59596 879.0773,245.16867 28.2858,8.6806 79.9754,24.4995 114.866,35.1531 47.866,14.6156 62.2497,20.0349 58.5988,22.0781 -3.0074,1.6829 -359.4644,3.1929 -941.84456,3.9896 l -937.0059054,1.2819 z"
       style="fill:#5555ff;fill-opacity:1;stroke-width:2.85714293" />
    <path
       transform="matrix(0.26458331,0,0,0.26458331,0,11.249991)"
       id="path899"
       d="M 15.199867,1065.0237 C 66.391169,1004.1795 188.33321,883.72062 232.77603,850.09395 c 49.2914,-37.29524 110.41206,-70.86393 161.78931,-88.8579 35.20209,-12.32891 82.73417,-19.96667 137.14895,-22.03795 193.38214,-7.36104 439.15757,50.55018 1185.53221,279.3429 120.9503,37.0759 169.4102,53.0881 167.239,55.2592 -2.1545,2.1546 -280.2211,3.3591 -942.01056,4.0806 l -938.9537137,1.0237 z"
       style="fill:#5555ff;fill-opacity:1;stroke-width:2.85714293" />
    <path
       transform="matrix(0.26458331,0,0,0.26458331,0,11.249991)"
       id="path901"
       d="m 6.107744,1075.955 c 2.6211957,-7.1591 73.651367,-82.28148 132.871366,-140.52643 66.97867,-65.87588 100.1754,-93.47428 145.3066,-120.80197 102.20686,-61.88795 171.52018,-79.23804 301.42858,-75.45177 63.88085,1.86185 104.14408,6.17033 178.57142,19.10854 179.20158,31.15182 469.64789,110.62857 971.42859,265.81843 72.2857,22.3564 136.4674,42.1976 142.6259,44.0916 8.4128,2.5873 10.1891,4.0927 7.1429,6.0537 -5.7592,3.7074 -1880.7313166,5.4113 -1879.375356,1.7079 z"
       style="fill:#5555ff;fill-opacity:1;stroke-width:2.85714293" />
  </g>
</svg>
