<svg xmlns="http://www.w3.org/2000/svg" viewBox="0 0 508 285.8" height="1080" width="1920"><style>.a{fill:#8080ff;stroke-width:3;}.b{fill:#55f;stroke-width:3;}</style><path d="m0 297c28.2-31.8 56.4-63.5 90-79.4 33.5-15.9 72.3-15.9 142.9 0 70.6 15.9 172.9 47.6 275.2 79.4" style="fill:#2a7fff;image-rendering:optimizeSpeed;stroke-width:0.3px;stroke:#000"/><path d="m22.1 1057.7c36.7-41.7 88.5-96.2 128.5-135.3 115.4-113 213.9-166.7 332.5-181.3 36.8-4.5 124.5-3.8 172.9 1.5 164.4 18 398.5 76.1 824.3 204.3 117.6 35.4 415.6 126.9 422.9 129.8 1.6 0.6-425.1 1.2-948.2 1.4l-951 0.2z" style="fill:#2a7fff;stroke-width:3"/><path d="M13.3 1056.3C73 987.3 177 882.4 218.9 848.9 317.8 769.8 407.6 733.3 518 727.3c168.1-9.1 396 39.1 912.3 193 105.7 31.5 472.5 144.2 474 145.7 0.7 0.6-426.7 1.1-949.6 1.1H4Z" class="a"/><path d="M16.1 1053.5C103.9 956.2 188.4 872.6 233.3 838.4c34.7-26.5 68.9-47.7 103.4-64.2 203.4-97.4 437.3-57.5 1390.8 237.2 74.6 23.1 142.8 44.1 151.4 46.6l15.7 4.7-20 1.8c-11 1-436.4 1.9-945.4 2.1l-925.4 0.4z" class="a"/><path d="m22.1 1057.7c62.6-70.8 152-160.2 199.6-199.4 42.6-35.1 112.3-75.6 159.3-92.5 54.1-19.4 105.5-27.4 177.1-27.5 191-0.2 451.1 62.8 1160.6 281.3 94.6 29.1 172.9 53.1 173.9 53.3 21.1 3.8-168.6 4.8-952 5l-936.7 0.3z" class="b"/><path d="m34.7 1044c39-43.8 125.3-130.6 164.5-165.6 56.3-50.1 137.6-98 201.1-118.3 98.3-31.5 236.9-27.8 429.4 11.3 161.4 32.8 443.8 111.6 879.1 245.2 28.3 8.7 80 24.5 114.9 35.2 47.9 14.6 62.2 20 58.6 22.1-3 1.7-359.5 3.2-941.8 4l-937 1.3z" class="b"/><path d="M15.2 1053.8C66.4 992.9 188.3 872.5 232.8 838.8c49.3-37.3 110.4-70.9 161.8-88.9 35.2-12.3 82.7-20 137.1-22 193.4-7.4 439.2 50.6 1185.5 279.3 121 37.1 169.4 53.1 167.2 55.3-2.2 2.2-280.2 3.4-942 4.1l-939 1z" class="b"/><path d="m6.1 1076c2.6-7.2 73.7-82.3 132.9-140.5 67-65.9 100.2-93.5 145.3-120.8 102.2-61.9 171.5-79.2 301.4-75.5 63.9 1.9 104.1 6.2 178.6 19.1 179.2 31.2 469.6 110.6 971.4 265.8 72.3 22.4 136.5 42.2 142.6 44.1 8.4 2.6 10.2 4.1 7.1 6.1-5.8 3.7-1880.7 5.4-1879.4 1.7z" class="b"/></svg>